<?xml version="1.0" encoding="utf-8" standalone="no"?>
<!DOCTYPE svg PUBLIC "-//W3C//DTD SVG 1.1//EN"
  "http://www.w3.org/Graphics/SVG/1.1/DTD/svg11.dtd">
<svg xmlns:xlink="http://www.w3.org/1999/xlink" width="693.880283pt" height="572.828881pt" viewBox="0 0 693.880283 572.828881" xmlns="http://www.w3.org/2000/svg" version="1.1">
 <metadata>
  <rdf:RDF xmlns:dc="http://purl.org/dc/elements/1.1/" xmlns:cc="http://creativecommons.org/ns#" xmlns:rdf="http://www.w3.org/1999/02/22-rdf-syntax-ns#">
   <cc:Work>
    <dc:type rdf:resource="http://purl.org/dc/dcmitype/StillImage"/>
    <dc:date>2026-04-13T07:23:14.846532</dc:date>
    <dc:format>image/svg+xml</dc:format>
    <dc:creator>
     <cc:Agent>
      <dc:title>Matplotlib v3.10.3, https://matplotlib.org/</dc:title>
     </cc:Agent>
    </dc:creator>
   </cc:Work>
  </rdf:RDF>
 </metadata>
 <defs>
  <style type="text/css">*{stroke-linejoin: round; stroke-linecap: butt}</style>
 </defs>
 <g id="figure_1">
  <g id="patch_1">
   <path d="M 0 572.828881 
L 693.880283 572.828881 
L 693.880283 0 
L 0 0 
z
" style="fill: #ffffff"/>
  </g>
  <g id="axes_1">
   <g id="patch_2">
    <path d="M 521.059923 304.441781 
C 521.059923 272.433694 514.755028 240.736846 502.506064 211.165231 
C 490.2571 181.593615 472.302277 154.722325 449.669143 132.08919 
C 427.036008 109.456055 400.164718 91.501233 370.593102 79.252269 
C 341.021486 67.003304 309.324638 60.698409 277.316552 60.698409 
C 245.308466 60.698409 213.611618 67.003304 184.040002 79.252269 
C 154.468386 91.501233 127.597096 109.456055 104.963961 132.08919 
C 82.330826 154.722325 64.376004 181.593615 52.12704 211.165231 
C 39.878075 240.736846 33.57318 272.433694 33.57318 304.441781 
C 33.57318 336.449867 39.878075 368.146715 52.12704 397.71833 
C 64.376004 427.289946 82.330826 454.161236 104.963961 476.794371 
C 127.597096 499.427506 154.468386 517.382328 184.040002 529.631293 
C 213.611618 541.880257 245.308466 548.185152 277.316552 548.185152 
C 309.324638 548.185152 341.021486 541.880257 370.593102 529.631293 
C 400.164718 517.382328 427.036008 499.427506 449.669143 476.794371 
C 472.302277 454.161236 490.2571 427.289946 502.506064 397.71833 
C 514.755028 368.146715 521.059923 336.449867 521.059923 304.441781 
M 277.316552 304.441781 
C 277.316552 304.441781 277.316552 304.441781 277.316552 304.441781 
C 277.316552 304.441781 277.316552 304.441781 277.316552 304.441781 
C 277.316552 304.441781 277.316552 304.441781 277.316552 304.441781 
C 277.316552 304.441781 277.316552 304.441781 277.316552 304.441781 
C 277.316552 304.441781 277.316552 304.441781 277.316552 304.441781 
C 277.316552 304.441781 277.316552 304.441781 277.316552 304.441781 
C 277.316552 304.441781 277.316552 304.441781 277.316552 304.441781 
C 277.316552 304.441781 277.316552 304.441781 277.316552 304.441781 
C 277.316552 304.441781 277.316552 304.441781 277.316552 304.441781 
C 277.316552 304.441781 277.316552 304.441781 277.316552 304.441781 
C 277.316552 304.441781 277.316552 304.441781 277.316552 304.441781 
C 277.316552 304.441781 277.316552 304.441781 277.316552 304.441781 
C 277.316552 304.441781 277.316552 304.441781 277.316552 304.441781 
C 277.316552 304.441781 277.316552 304.441781 277.316552 304.441781 
C 277.316552 304.441781 277.316552 304.441781 277.316552 304.441781 
C 277.316552 304.441781 277.316552 304.441781 277.316552 304.441781 
z
" style="fill: #ffffff"/>
   </g>
   <g id="matplotlib.axis_1">
    <g id="xtick_1">
     <g id="line2d_1">
      <path d="M 277.316552 304.441781 
L 521.059923 304.441781 
" clip-path="url(#pd0363772bc)" style="fill: none; stroke: #e0e0e0; stroke-width: 0.5; stroke-linecap: square"/>
     </g>
     <g id="text_1">
      <!-- gender -->
      <g transform="translate(515.561564 307.477093) scale(0.11 -0.11)">
       <defs>
        <path id="DejaVuSans-67" d="M 2906 1791 
Q 2906 2416 2648 2759 
Q 2391 3103 1925 3103 
Q 1463 3103 1205 2759 
Q 947 2416 947 1791 
Q 947 1169 1205 825 
Q 1463 481 1925 481 
Q 2391 481 2648 825 
Q 2906 1169 2906 1791 
z
M 3481 434 
Q 3481 -459 3084 -895 
Q 2688 -1331 1869 -1331 
Q 1566 -1331 1297 -1286 
Q 1028 -1241 775 -1147 
L 775 -588 
Q 1028 -725 1275 -790 
Q 1522 -856 1778 -856 
Q 2344 -856 2625 -561 
Q 2906 -266 2906 331 
L 2906 616 
Q 2728 306 2450 153 
Q 2172 0 1784 0 
Q 1141 0 747 490 
Q 353 981 353 1791 
Q 353 2603 747 3093 
Q 1141 3584 1784 3584 
Q 2172 3584 2450 3431 
Q 2728 3278 2906 2969 
L 2906 3500 
L 3481 3500 
L 3481 434 
z
" transform="scale(0.015625)"/>
        <path id="DejaVuSans-65" d="M 3597 1894 
L 3597 1613 
L 953 1613 
Q 991 1019 1311 708 
Q 1631 397 2203 397 
Q 2534 397 2845 478 
Q 3156 559 3463 722 
L 3463 178 
Q 3153 47 2828 -22 
Q 2503 -91 2169 -91 
Q 1331 -91 842 396 
Q 353 884 353 1716 
Q 353 2575 817 3079 
Q 1281 3584 2069 3584 
Q 2775 3584 3186 3129 
Q 3597 2675 3597 1894 
z
M 3022 2063 
Q 3016 2534 2758 2815 
Q 2500 3097 2075 3097 
Q 1594 3097 1305 2825 
Q 1016 2553 972 2059 
L 3022 2063 
z
" transform="scale(0.015625)"/>
        <path id="DejaVuSans-6e" d="M 3513 2113 
L 3513 0 
L 2938 0 
L 2938 2094 
Q 2938 2591 2744 2837 
Q 2550 3084 2163 3084 
Q 1697 3084 1428 2787 
Q 1159 2491 1159 1978 
L 1159 0 
L 581 0 
L 581 3500 
L 1159 3500 
L 1159 2956 
Q 1366 3272 1645 3428 
Q 1925 3584 2291 3584 
Q 2894 3584 3203 3211 
Q 3513 2838 3513 2113 
z
" transform="scale(0.015625)"/>
        <path id="DejaVuSans-64" d="M 2906 2969 
L 2906 4863 
L 3481 4863 
L 3481 0 
L 2906 0 
L 2906 525 
Q 2725 213 2448 61 
Q 2172 -91 1784 -91 
Q 1150 -91 751 415 
Q 353 922 353 1747 
Q 353 2572 751 3078 
Q 1150 3584 1784 3584 
Q 2172 3584 2448 3432 
Q 2725 3281 2906 2969 
z
M 947 1747 
Q 947 1113 1208 752 
Q 1469 391 1925 391 
Q 2381 391 2643 752 
Q 2906 1113 2906 1747 
Q 2906 2381 2643 2742 
Q 2381 3103 1925 3103 
Q 1469 3103 1208 2742 
Q 947 2381 947 1747 
z
" transform="scale(0.015625)"/>
        <path id="DejaVuSans-72" d="M 2631 2963 
Q 2534 3019 2420 3045 
Q 2306 3072 2169 3072 
Q 1681 3072 1420 2755 
Q 1159 2438 1159 1844 
L 1159 0 
L 581 0 
L 581 3500 
L 1159 3500 
L 1159 2956 
Q 1341 3275 1631 3429 
Q 1922 3584 2338 3584 
Q 2397 3584 2469 3576 
Q 2541 3569 2628 3553 
L 2631 2963 
z
" transform="scale(0.015625)"/>
       </defs>
       <use xlink:href="#DejaVuSans-67"/>
       <use xlink:href="#DejaVuSans-65" transform="translate(63.476562 0)"/>
       <use xlink:href="#DejaVuSans-6e" transform="translate(125 0)"/>
       <use xlink:href="#DejaVuSans-64" transform="translate(188.378906 0)"/>
       <use xlink:href="#DejaVuSans-65" transform="translate(251.855469 0)"/>
       <use xlink:href="#DejaVuSans-72" transform="translate(313.378906 0)"/>
      </g>
     </g>
    </g>
    <g id="xtick_2">
     <g id="line2d_2">
      <path d="M 277.316552 304.441781 
L 493.140589 191.168588 
" clip-path="url(#pd0363772bc)" style="fill: none; stroke: #e0e0e0; stroke-width: 0.5; stroke-linecap: square"/>
     </g>
     <g id="text_2">
      <!-- age -->
      <g transform="translate(495.290645 187.697776) scale(0.11 -0.11)">
       <defs>
        <path id="DejaVuSans-61" d="M 2194 1759 
Q 1497 1759 1228 1600 
Q 959 1441 959 1056 
Q 959 750 1161 570 
Q 1363 391 1709 391 
Q 2188 391 2477 730 
Q 2766 1069 2766 1631 
L 2766 1759 
L 2194 1759 
z
M 3341 1997 
L 3341 0 
L 2766 0 
L 2766 531 
Q 2569 213 2275 61 
Q 1981 -91 1556 -91 
Q 1019 -91 701 211 
Q 384 513 384 1019 
Q 384 1609 779 1909 
Q 1175 2209 1959 2209 
L 2766 2209 
L 2766 2266 
Q 2766 2663 2505 2880 
Q 2244 3097 1772 3097 
Q 1472 3097 1187 3025 
Q 903 2953 641 2809 
L 641 3341 
Q 956 3463 1253 3523 
Q 1550 3584 1831 3584 
Q 2591 3584 2966 3190 
Q 3341 2797 3341 1997 
z
" transform="scale(0.015625)"/>
       </defs>
       <use xlink:href="#DejaVuSans-61"/>
       <use xlink:href="#DejaVuSans-67" transform="translate(61.279297 0)"/>
       <use xlink:href="#DejaVuSans-65" transform="translate(124.755859 0)"/>
      </g>
     </g>
    </g>
    <g id="xtick_3">
     <g id="line2d_3">
      <path d="M 277.316552 304.441781 
L 415.778568 103.844918 
" clip-path="url(#pd0363772bc)" style="fill: none; stroke: #e0e0e0; stroke-width: 0.5; stroke-linecap: square"/>
     </g>
     <g id="text_3">
      <!-- accent -->
      <g transform="translate(405.286709 95.358457) scale(0.11 -0.11)">
       <defs>
        <path id="DejaVuSans-63" d="M 3122 3366 
L 3122 2828 
Q 2878 2963 2633 3030 
Q 2388 3097 2138 3097 
Q 1578 3097 1268 2742 
Q 959 2388 959 1747 
Q 959 1106 1268 751 
Q 1578 397 2138 397 
Q 2388 397 2633 464 
Q 2878 531 3122 666 
L 3122 134 
Q 2881 22 2623 -34 
Q 2366 -91 2075 -91 
Q 1284 -91 818 406 
Q 353 903 353 1747 
Q 353 2603 823 3093 
Q 1294 3584 2113 3584 
Q 2378 3584 2631 3529 
Q 2884 3475 3122 3366 
z
" transform="scale(0.015625)"/>
        <path id="DejaVuSans-74" d="M 1172 4494 
L 1172 3500 
L 2356 3500 
L 2356 3053 
L 1172 3053 
L 1172 1153 
Q 1172 725 1289 603 
Q 1406 481 1766 481 
L 2356 481 
L 2356 0 
L 1766 0 
Q 1100 0 847 248 
Q 594 497 594 1153 
L 594 3053 
L 172 3053 
L 172 3500 
L 594 3500 
L 594 4494 
L 1172 4494 
z
" transform="scale(0.015625)"/>
       </defs>
       <use xlink:href="#DejaVuSans-61"/>
       <use xlink:href="#DejaVuSans-63" transform="translate(61.279297 0)"/>
       <use xlink:href="#DejaVuSans-63" transform="translate(116.259766 0)"/>
       <use xlink:href="#DejaVuSans-65" transform="translate(171.240234 0)"/>
       <use xlink:href="#DejaVuSans-6e" transform="translate(232.763672 0)"/>
       <use xlink:href="#DejaVuSans-74" transform="translate(296.142578 0)"/>
      </g>
     </g>
    </g>
    <g id="xtick_4">
     <g id="line2d_4">
      <path d="M 277.316552 304.441781 
L 306.696569 62.475573 
" clip-path="url(#pd0363772bc)" style="fill: none; stroke: #e0e0e0; stroke-width: 0.5; stroke-linecap: square"/>
     </g>
     <g id="text_4">
      <!-- pitch -->
      <g transform="translate(294.698535 51.612961) scale(0.11 -0.11)">
       <defs>
        <path id="DejaVuSans-70" d="M 1159 525 
L 1159 -1331 
L 581 -1331 
L 581 3500 
L 1159 3500 
L 1159 2969 
Q 1341 3281 1617 3432 
Q 1894 3584 2278 3584 
Q 2916 3584 3314 3078 
Q 3713 2572 3713 1747 
Q 3713 922 3314 415 
Q 2916 -91 2278 -91 
Q 1894 -91 1617 61 
Q 1341 213 1159 525 
z
M 3116 1747 
Q 3116 2381 2855 2742 
Q 2594 3103 2138 3103 
Q 1681 3103 1420 2742 
Q 1159 2381 1159 1747 
Q 1159 1113 1420 752 
Q 1681 391 2138 391 
Q 2594 391 2855 752 
Q 3116 1113 3116 1747 
z
" transform="scale(0.015625)"/>
        <path id="DejaVuSans-69" d="M 603 3500 
L 1178 3500 
L 1178 0 
L 603 0 
L 603 3500 
z
M 603 4863 
L 1178 4863 
L 1178 4134 
L 603 4134 
L 603 4863 
z
" transform="scale(0.015625)"/>
        <path id="DejaVuSans-68" d="M 3513 2113 
L 3513 0 
L 2938 0 
L 2938 2094 
Q 2938 2591 2744 2837 
Q 2550 3084 2163 3084 
Q 1697 3084 1428 2787 
Q 1159 2491 1159 1978 
L 1159 0 
L 581 0 
L 581 4863 
L 1159 4863 
L 1159 2956 
Q 1366 3272 1645 3428 
Q 1925 3584 2291 3584 
Q 2894 3584 3203 3211 
Q 3513 2838 3513 2113 
z
" transform="scale(0.015625)"/>
       </defs>
       <use xlink:href="#DejaVuSans-70"/>
       <use xlink:href="#DejaVuSans-69" transform="translate(63.476562 0)"/>
       <use xlink:href="#DejaVuSans-74" transform="translate(91.259766 0)"/>
       <use xlink:href="#DejaVuSans-63" transform="translate(130.46875 0)"/>
       <use xlink:href="#DejaVuSans-68" transform="translate(185.449219 0)"/>
      </g>
     </g>
    </g>
    <g id="xtick_5">
     <g id="line2d_5">
      <path d="M 277.316552 304.441781 
L 190.883961 76.537769 
" clip-path="url(#pd0363772bc)" style="fill: none; stroke: #e0e0e0; stroke-width: 0.5; stroke-linecap: square"/>
     </g>
     <g id="text_5">
      <!-- volume -->
      <g transform="translate(165.543711 66.482854) scale(0.11 -0.11)">
       <defs>
        <path id="DejaVuSans-76" d="M 191 3500 
L 800 3500 
L 1894 563 
L 2988 3500 
L 3597 3500 
L 2284 0 
L 1503 0 
L 191 3500 
z
" transform="scale(0.015625)"/>
        <path id="DejaVuSans-6f" d="M 1959 3097 
Q 1497 3097 1228 2736 
Q 959 2375 959 1747 
Q 959 1119 1226 758 
Q 1494 397 1959 397 
Q 2419 397 2687 759 
Q 2956 1122 2956 1747 
Q 2956 2369 2687 2733 
Q 2419 3097 1959 3097 
z
M 1959 3584 
Q 2709 3584 3137 3096 
Q 3566 2609 3566 1747 
Q 3566 888 3137 398 
Q 2709 -91 1959 -91 
Q 1206 -91 779 398 
Q 353 888 353 1747 
Q 353 2609 779 3096 
Q 1206 3584 1959 3584 
z
" transform="scale(0.015625)"/>
        <path id="DejaVuSans-6c" d="M 603 4863 
L 1178 4863 
L 1178 0 
L 603 0 
L 603 4863 
z
" transform="scale(0.015625)"/>
        <path id="DejaVuSans-75" d="M 544 1381 
L 544 3500 
L 1119 3500 
L 1119 1403 
Q 1119 906 1312 657 
Q 1506 409 1894 409 
Q 2359 409 2629 706 
Q 2900 1003 2900 1516 
L 2900 3500 
L 3475 3500 
L 3475 0 
L 2900 0 
L 2900 538 
Q 2691 219 2414 64 
Q 2138 -91 1772 -91 
Q 1169 -91 856 284 
Q 544 659 544 1381 
z
M 1991 3584 
L 1991 3584 
z
" transform="scale(0.015625)"/>
        <path id="DejaVuSans-6d" d="M 3328 2828 
Q 3544 3216 3844 3400 
Q 4144 3584 4550 3584 
Q 5097 3584 5394 3201 
Q 5691 2819 5691 2113 
L 5691 0 
L 5113 0 
L 5113 2094 
Q 5113 2597 4934 2840 
Q 4756 3084 4391 3084 
Q 3944 3084 3684 2787 
Q 3425 2491 3425 1978 
L 3425 0 
L 2847 0 
L 2847 2094 
Q 2847 2600 2669 2842 
Q 2491 3084 2119 3084 
Q 1678 3084 1418 2786 
Q 1159 2488 1159 1978 
L 1159 0 
L 581 0 
L 581 3500 
L 1159 3500 
L 1159 2956 
Q 1356 3278 1631 3431 
Q 1906 3584 2284 3584 
Q 2666 3584 2933 3390 
Q 3200 3197 3328 2828 
z
" transform="scale(0.015625)"/>
       </defs>
       <use xlink:href="#DejaVuSans-76"/>
       <use xlink:href="#DejaVuSans-6f" transform="translate(59.179688 0)"/>
       <use xlink:href="#DejaVuSans-6c" transform="translate(120.361328 0)"/>
       <use xlink:href="#DejaVuSans-75" transform="translate(148.144531 0)"/>
       <use xlink:href="#DejaVuSans-6d" transform="translate(211.523438 0)"/>
       <use xlink:href="#DejaVuSans-65" transform="translate(308.935547 0)"/>
      </g>
     </g>
    </g>
    <g id="xtick_6">
     <g id="line2d_6">
      <path d="M 277.316552 304.441781 
L 94.872019 142.810028 
" clip-path="url(#pd0363772bc)" style="fill: none; stroke: #e0e0e0; stroke-width: 0.5; stroke-linecap: square"/>
     </g>
     <g id="text_6">
      <!-- speed -->
      <g transform="translate(67.775993 136.561623) scale(0.11 -0.11)">
       <defs>
        <path id="DejaVuSans-73" d="M 2834 3397 
L 2834 2853 
Q 2591 2978 2328 3040 
Q 2066 3103 1784 3103 
Q 1356 3103 1142 2972 
Q 928 2841 928 2578 
Q 928 2378 1081 2264 
Q 1234 2150 1697 2047 
L 1894 2003 
Q 2506 1872 2764 1633 
Q 3022 1394 3022 966 
Q 3022 478 2636 193 
Q 2250 -91 1575 -91 
Q 1294 -91 989 -36 
Q 684 19 347 128 
L 347 722 
Q 666 556 975 473 
Q 1284 391 1588 391 
Q 1994 391 2212 530 
Q 2431 669 2431 922 
Q 2431 1156 2273 1281 
Q 2116 1406 1581 1522 
L 1381 1569 
Q 847 1681 609 1914 
Q 372 2147 372 2553 
Q 372 3047 722 3315 
Q 1072 3584 1716 3584 
Q 2034 3584 2315 3537 
Q 2597 3491 2834 3397 
z
" transform="scale(0.015625)"/>
       </defs>
       <use xlink:href="#DejaVuSans-73"/>
       <use xlink:href="#DejaVuSans-70" transform="translate(52.099609 0)"/>
       <use xlink:href="#DejaVuSans-65" transform="translate(115.576172 0)"/>
       <use xlink:href="#DejaVuSans-65" transform="translate(177.099609 0)"/>
       <use xlink:href="#DejaVuSans-64" transform="translate(238.623047 0)"/>
      </g>
     </g>
    </g>
    <g id="xtick_7">
     <g id="line2d_7">
      <path d="M 277.316552 304.441781 
L 40.65592 246.110174 
" clip-path="url(#pd0363772bc)" style="fill: none; stroke: #e0e0e0; stroke-width: 0.5; stroke-linecap: square"/>
     </g>
     <g id="text_7">
      <!-- texture -->
      <g transform="translate(7.2 245.795067) scale(0.11 -0.11)">
       <defs>
        <path id="DejaVuSans-78" d="M 3513 3500 
L 2247 1797 
L 3578 0 
L 2900 0 
L 1881 1375 
L 863 0 
L 184 0 
L 1544 1831 
L 300 3500 
L 978 3500 
L 1906 2253 
L 2834 3500 
L 3513 3500 
z
" transform="scale(0.015625)"/>
       </defs>
       <use xlink:href="#DejaVuSans-74"/>
       <use xlink:href="#DejaVuSans-65" transform="translate(39.208984 0)"/>
       <use xlink:href="#DejaVuSans-78" transform="translate(98.982422 0)"/>
       <use xlink:href="#DejaVuSans-74" transform="translate(158.162109 0)"/>
       <use xlink:href="#DejaVuSans-75" transform="translate(197.371094 0)"/>
       <use xlink:href="#DejaVuSans-72" transform="translate(260.75 0)"/>
       <use xlink:href="#DejaVuSans-65" transform="translate(299.613281 0)"/>
      </g>
     </g>
    </g>
    <g id="xtick_8">
     <g id="line2d_8">
      <path d="M 277.316552 304.441781 
L 40.65592 362.773387 
" clip-path="url(#pd0363772bc)" style="fill: none; stroke: #e0e0e0; stroke-width: 0.5; stroke-linecap: square"/>
     </g>
     <g id="text_8">
      <!-- clarity -->
      <g transform="translate(9.939687 369.159119) scale(0.11 -0.11)">
       <defs>
        <path id="DejaVuSans-79" d="M 2059 -325 
Q 1816 -950 1584 -1140 
Q 1353 -1331 966 -1331 
L 506 -1331 
L 506 -850 
L 844 -850 
Q 1081 -850 1212 -737 
Q 1344 -625 1503 -206 
L 1606 56 
L 191 3500 
L 800 3500 
L 1894 763 
L 2988 3500 
L 3597 3500 
L 2059 -325 
z
" transform="scale(0.015625)"/>
       </defs>
       <use xlink:href="#DejaVuSans-63"/>
       <use xlink:href="#DejaVuSans-6c" transform="translate(54.980469 0)"/>
       <use xlink:href="#DejaVuSans-61" transform="translate(82.763672 0)"/>
       <use xlink:href="#DejaVuSans-72" transform="translate(144.042969 0)"/>
       <use xlink:href="#DejaVuSans-69" transform="translate(185.15625 0)"/>
       <use xlink:href="#DejaVuSans-74" transform="translate(212.939453 0)"/>
       <use xlink:href="#DejaVuSans-79" transform="translate(252.148438 0)"/>
      </g>
     </g>
    </g>
    <g id="xtick_9">
     <g id="line2d_9">
      <path d="M 277.316552 304.441781 
L 94.872019 466.073533 
" clip-path="url(#pd0363772bc)" style="fill: none; stroke: #e0e0e0; stroke-width: 0.5; stroke-linecap: square"/>
     </g>
     <g id="text_9">
      <!-- fluency -->
      <g transform="translate(64.293806 478.392563) scale(0.11 -0.11)">
       <defs>
        <path id="DejaVuSans-66" d="M 2375 4863 
L 2375 4384 
L 1825 4384 
Q 1516 4384 1395 4259 
Q 1275 4134 1275 3809 
L 1275 3500 
L 2222 3500 
L 2222 3053 
L 1275 3053 
L 1275 0 
L 697 0 
L 697 3053 
L 147 3053 
L 147 3500 
L 697 3500 
L 697 3744 
Q 697 4328 969 4595 
Q 1241 4863 1831 4863 
L 2375 4863 
z
" transform="scale(0.015625)"/>
       </defs>
       <use xlink:href="#DejaVuSans-66"/>
       <use xlink:href="#DejaVuSans-6c" transform="translate(35.205078 0)"/>
       <use xlink:href="#DejaVuSans-75" transform="translate(62.988281 0)"/>
       <use xlink:href="#DejaVuSans-65" transform="translate(126.367188 0)"/>
       <use xlink:href="#DejaVuSans-6e" transform="translate(187.890625 0)"/>
       <use xlink:href="#DejaVuSans-63" transform="translate(251.269531 0)"/>
       <use xlink:href="#DejaVuSans-79" transform="translate(306.25 0)"/>
      </g>
     </g>
    </g>
    <g id="xtick_10">
     <g id="line2d_10">
      <path d="M 277.316552 304.441781 
L 190.883961 532.345792 
" clip-path="url(#pd0363772bc)" style="fill: none; stroke: #e0e0e0; stroke-width: 0.5; stroke-linecap: square"/>
     </g>
     <g id="text_10">
      <!-- emotion -->
      <g transform="translate(163.27754 548.471332) scale(0.11 -0.11)">
       <use xlink:href="#DejaVuSans-65"/>
       <use xlink:href="#DejaVuSans-6d" transform="translate(61.523438 0)"/>
       <use xlink:href="#DejaVuSans-6f" transform="translate(158.935547 0)"/>
       <use xlink:href="#DejaVuSans-74" transform="translate(220.117188 0)"/>
       <use xlink:href="#DejaVuSans-69" transform="translate(259.326172 0)"/>
       <use xlink:href="#DejaVuSans-6f" transform="translate(287.109375 0)"/>
       <use xlink:href="#DejaVuSans-6e" transform="translate(348.291016 0)"/>
      </g>
     </g>
    </g>
    <g id="xtick_11">
     <g id="line2d_11">
      <path d="M 277.316552 304.441781 
L 306.696569 546.407988 
" clip-path="url(#pd0363772bc)" style="fill: none; stroke: #e0e0e0; stroke-width: 0.5; stroke-linecap: square"/>
     </g>
     <g id="text_11">
      <!-- tone -->
      <g transform="translate(295.992754 563.341225) scale(0.11 -0.11)">
       <use xlink:href="#DejaVuSans-74"/>
       <use xlink:href="#DejaVuSans-6f" transform="translate(39.208984 0)"/>
       <use xlink:href="#DejaVuSans-6e" transform="translate(100.390625 0)"/>
       <use xlink:href="#DejaVuSans-65" transform="translate(163.769531 0)"/>
      </g>
     </g>
    </g>
    <g id="xtick_12">
     <g id="line2d_12">
      <path d="M 277.316552 304.441781 
L 415.778568 505.038643 
" clip-path="url(#pd0363772bc)" style="fill: none; stroke: #e0e0e0; stroke-width: 0.5; stroke-linecap: square"/>
     </g>
     <g id="text_12">
      <!-- personality -->
      <g transform="translate(393.040615 519.595729) scale(0.11 -0.11)">
       <use xlink:href="#DejaVuSans-70"/>
       <use xlink:href="#DejaVuSans-65" transform="translate(63.476562 0)"/>
       <use xlink:href="#DejaVuSans-72" transform="translate(125 0)"/>
       <use xlink:href="#DejaVuSans-73" transform="translate(166.113281 0)"/>
       <use xlink:href="#DejaVuSans-6f" transform="translate(218.212891 0)"/>
       <use xlink:href="#DejaVuSans-6e" transform="translate(279.394531 0)"/>
       <use xlink:href="#DejaVuSans-61" transform="translate(342.773438 0)"/>
       <use xlink:href="#DejaVuSans-6c" transform="translate(404.052734 0)"/>
       <use xlink:href="#DejaVuSans-69" transform="translate(431.835938 0)"/>
       <use xlink:href="#DejaVuSans-74" transform="translate(459.619141 0)"/>
       <use xlink:href="#DejaVuSans-79" transform="translate(498.828125 0)"/>
      </g>
     </g>
    </g>
    <g id="xtick_13">
     <g id="line2d_13">
      <path d="M 277.316552 304.441781 
L 493.140589 417.714973 
" clip-path="url(#pd0363772bc)" style="fill: none; stroke: #e0e0e0; stroke-width: 0.5; stroke-linecap: square"/>
     </g>
     <g id="text_13">
      <!-- summary -->
      <g transform="translate(479.584707 427.25641) scale(0.11 -0.11)">
       <use xlink:href="#DejaVuSans-73"/>
       <use xlink:href="#DejaVuSans-75" transform="translate(52.099609 0)"/>
       <use xlink:href="#DejaVuSans-6d" transform="translate(115.478516 0)"/>
       <use xlink:href="#DejaVuSans-6d" transform="translate(212.890625 0)"/>
       <use xlink:href="#DejaVuSans-61" transform="translate(310.302734 0)"/>
       <use xlink:href="#DejaVuSans-72" transform="translate(371.582031 0)"/>
       <use xlink:href="#DejaVuSans-79" transform="translate(412.695312 0)"/>
      </g>
     </g>
    </g>
   </g>
   <g id="matplotlib.axis_2"/>
   <g id="patch_3">
    <path d="M 521.059923 304.441781 
C 521.059923 272.433694 514.755028 240.736846 502.506064 211.165231 
C 490.2571 181.593615 472.302277 154.722325 449.669143 132.08919 
C 427.036008 109.456055 400.164718 91.501233 370.593102 79.252269 
C 341.021486 67.003304 309.324638 60.698409 277.316552 60.698409 
C 245.308466 60.698409 213.611618 67.003304 184.040002 79.252269 
C 154.468386 91.501233 127.597096 109.456055 104.963961 132.08919 
C 82.330826 154.722325 64.376004 181.593615 52.12704 211.165231 
C 39.878075 240.736846 33.57318 272.433694 33.57318 304.441781 
C 33.57318 336.449867 39.878075 368.146715 52.12704 397.71833 
C 64.376004 427.289946 82.330826 454.161236 104.963961 476.794371 
C 127.597096 499.427506 154.468386 517.382328 184.040002 529.631293 
C 213.611618 541.880257 245.308466 548.185152 277.316552 548.185152 
C 309.324638 548.185152 341.021486 541.880257 370.593102 529.631293 
C 400.164718 517.382328 427.036008 499.427506 449.669143 476.794371 
C 472.302277 454.161236 490.2571 427.289946 502.506064 397.71833 
C 514.755028 368.146715 521.059923 336.449867 521.059923 304.441781 
" style="fill: none; stroke: #cccccc; stroke-width: 0.8; stroke-linejoin: miter; stroke-linecap: square"/>
   </g>
   <g id="line2d_14">
    <path d="M 510.687865 304.441781 
L 478.70989 198.742403 
L 405.05389 119.382298 
L 304.529577 80.322353 
L 194.561944 86.235812 
L 110.531523 156.683138 
L 50.726585 248.59237 
L 54.370661 359.393007 
L 102.946408 458.920248 
L 195.501332 520.170785 
L 305.446355 536.111554 
L 409.886568 496.502606 
L 477.291451 409.396704 
L 510.687865 304.441781 
" clip-path="url(#pd0363772bc)" style="fill: none; stroke-dasharray: 6.66,2.88; stroke-dashoffset: 0; stroke: #7fb3e6; stroke-opacity: 0.85; stroke-width: 1.8"/>
    <defs>
     <path id="m9ccc1bef80" d="M 0 2 
C 0.530406 2 1.03916 1.789267 1.414214 1.414214 
C 1.789267 1.03916 2 0.530406 2 0 
C 2 -0.530406 1.789267 -1.03916 1.414214 -1.414214 
C 1.03916 -1.789267 0.530406 -2 0 -2 
C -0.530406 -2 -1.03916 -1.789267 -1.414214 -1.414214 
C -1.789267 -1.03916 -2 -0.530406 -2 0 
C -2 0.530406 -1.789267 1.03916 -1.414214 1.414214 
C -1.03916 1.789267 -0.530406 2 0 2 
z
" style="stroke: #7fb3e6; stroke-opacity: 0.85"/>
    </defs>
    <g clip-path="url(#pd0363772bc)">
     <use xlink:href="#m9ccc1bef80" x="510.687865" y="304.441781" style="fill: #7fb3e6; fill-opacity: 0.85; stroke: #7fb3e6; stroke-opacity: 0.85"/>
     <use xlink:href="#m9ccc1bef80" x="478.70989" y="198.742403" style="fill: #7fb3e6; fill-opacity: 0.85; stroke: #7fb3e6; stroke-opacity: 0.85"/>
     <use xlink:href="#m9ccc1bef80" x="405.05389" y="119.382298" style="fill: #7fb3e6; fill-opacity: 0.85; stroke: #7fb3e6; stroke-opacity: 0.85"/>
     <use xlink:href="#m9ccc1bef80" x="304.529577" y="80.322353" style="fill: #7fb3e6; fill-opacity: 0.85; stroke: #7fb3e6; stroke-opacity: 0.85"/>
     <use xlink:href="#m9ccc1bef80" x="194.561944" y="86.235812" style="fill: #7fb3e6; fill-opacity: 0.85; stroke: #7fb3e6; stroke-opacity: 0.85"/>
     <use xlink:href="#m9ccc1bef80" x="110.531523" y="156.683138" style="fill: #7fb3e6; fill-opacity: 0.85; stroke: #7fb3e6; stroke-opacity: 0.85"/>
     <use xlink:href="#m9ccc1bef80" x="50.726585" y="248.59237" style="fill: #7fb3e6; fill-opacity: 0.85; stroke: #7fb3e6; stroke-opacity: 0.85"/>
     <use xlink:href="#m9ccc1bef80" x="54.370661" y="359.393007" style="fill: #7fb3e6; fill-opacity: 0.85; stroke: #7fb3e6; stroke-opacity: 0.85"/>
     <use xlink:href="#m9ccc1bef80" x="102.946408" y="458.920248" style="fill: #7fb3e6; fill-opacity: 0.85; stroke: #7fb3e6; stroke-opacity: 0.85"/>
     <use xlink:href="#m9ccc1bef80" x="195.501332" y="520.170785" style="fill: #7fb3e6; fill-opacity: 0.85; stroke: #7fb3e6; stroke-opacity: 0.85"/>
     <use xlink:href="#m9ccc1bef80" x="305.446355" y="536.111554" style="fill: #7fb3e6; fill-opacity: 0.85; stroke: #7fb3e6; stroke-opacity: 0.85"/>
     <use xlink:href="#m9ccc1bef80" x="409.886568" y="496.502606" style="fill: #7fb3e6; fill-opacity: 0.85; stroke: #7fb3e6; stroke-opacity: 0.85"/>
     <use xlink:href="#m9ccc1bef80" x="477.291451" y="409.396704" style="fill: #7fb3e6; fill-opacity: 0.85; stroke: #7fb3e6; stroke-opacity: 0.85"/>
     <use xlink:href="#m9ccc1bef80" x="510.687865" y="304.441781" style="fill: #7fb3e6; fill-opacity: 0.85; stroke: #7fb3e6; stroke-opacity: 0.85"/>
    </g>
   </g>
   <g id="line2d_15">
    <path d="M 481.870458 304.441781 
L 473.69131 201.376357 
L 395.968456 132.544821 
L 303.884437 85.635559 
L 196.538291 91.447012 
L 105.19645 151.956677 
L 97.133818 260.030725 
L 96.017248 349.128046 
L 125.012677 439.371239 
L 194.561944 522.647749 
L 304.341657 527.013547 
L 408.727778 494.823809 
L 466.182892 403.566483 
L 481.870458 304.441781 
" clip-path="url(#pd0363772bc)" style="fill: none; stroke-dasharray: 6.66,2.88; stroke-dashoffset: 0; stroke: #e74c3c; stroke-opacity: 0.85; stroke-width: 1.8"/>
    <defs>
     <path id="ma5e279d977" d="M 0 2 
C 0.530406 2 1.03916 1.789267 1.414214 1.414214 
C 1.789267 1.03916 2 0.530406 2 0 
C 2 -0.530406 1.789267 -1.03916 1.414214 -1.414214 
C 1.03916 -1.789267 0.530406 -2 0 -2 
C -0.530406 -2 -1.03916 -1.789267 -1.414214 -1.414214 
C -1.789267 -1.03916 -2 -0.530406 -2 0 
C -2 0.530406 -1.789267 1.03916 -1.414214 1.414214 
C -1.03916 1.789267 -0.530406 2 0 2 
z
" style="stroke: #e74c3c; stroke-opacity: 0.85"/>
    </defs>
    <g clip-path="url(#pd0363772bc)">
     <use xlink:href="#ma5e279d977" x="481.870458" y="304.441781" style="fill: #e74c3c; fill-opacity: 0.85; stroke: #e74c3c; stroke-opacity: 0.85"/>
     <use xlink:href="#ma5e279d977" x="473.69131" y="201.376357" style="fill: #e74c3c; fill-opacity: 0.85; stroke: #e74c3c; stroke-opacity: 0.85"/>
     <use xlink:href="#ma5e279d977" x="395.968456" y="132.544821" style="fill: #e74c3c; fill-opacity: 0.85; stroke: #e74c3c; stroke-opacity: 0.85"/>
     <use xlink:href="#ma5e279d977" x="303.884437" y="85.635559" style="fill: #e74c3c; fill-opacity: 0.85; stroke: #e74c3c; stroke-opacity: 0.85"/>
     <use xlink:href="#ma5e279d977" x="196.538291" y="91.447012" style="fill: #e74c3c; fill-opacity: 0.85; stroke: #e74c3c; stroke-opacity: 0.85"/>
     <use xlink:href="#ma5e279d977" x="105.19645" y="151.956677" style="fill: #e74c3c; fill-opacity: 0.85; stroke: #e74c3c; stroke-opacity: 0.85"/>
     <use xlink:href="#ma5e279d977" x="97.133818" y="260.030725" style="fill: #e74c3c; fill-opacity: 0.85; stroke: #e74c3c; stroke-opacity: 0.85"/>
     <use xlink:href="#ma5e279d977" x="96.017248" y="349.128046" style="fill: #e74c3c; fill-opacity: 0.85; stroke: #e74c3c; stroke-opacity: 0.85"/>
     <use xlink:href="#ma5e279d977" x="125.012677" y="439.371239" style="fill: #e74c3c; fill-opacity: 0.85; stroke: #e74c3c; stroke-opacity: 0.85"/>
     <use xlink:href="#ma5e279d977" x="194.561944" y="522.647749" style="fill: #e74c3c; fill-opacity: 0.85; stroke: #e74c3c; stroke-opacity: 0.85"/>
     <use xlink:href="#ma5e279d977" x="304.341657" y="527.013547" style="fill: #e74c3c; fill-opacity: 0.85; stroke: #e74c3c; stroke-opacity: 0.85"/>
     <use xlink:href="#ma5e279d977" x="408.727778" y="494.823809" style="fill: #e74c3c; fill-opacity: 0.85; stroke: #e74c3c; stroke-opacity: 0.85"/>
     <use xlink:href="#ma5e279d977" x="466.182892" y="403.566483" style="fill: #e74c3c; fill-opacity: 0.85; stroke: #e74c3c; stroke-opacity: 0.85"/>
     <use xlink:href="#ma5e279d977" x="481.870458" y="304.441781" style="fill: #e74c3c; fill-opacity: 0.85; stroke: #e74c3c; stroke-opacity: 0.85"/>
    </g>
   </g>
   <g id="line2d_16">
    <path d="M 479.993462 304.441781 
L 483.956587 195.988724 
L 394.09982 135.252007 
L 304.223985 82.839135 
L 201.726203 105.126412 
L 105.623256 152.334794 
L 84.423557 256.897927 
L 111.374427 345.342841 
L 125.530665 438.912342 
L 199.866726 508.660187 
L 303.008401 516.033193 
L 400.259698 482.555678 
L 456.185188 398.319283 
L 479.993462 304.441781 
" clip-path="url(#pd0363772bc)" style="fill: none; stroke-dasharray: 6.66,2.88; stroke-dashoffset: 0; stroke: #f39c12; stroke-opacity: 0.85; stroke-width: 1.8"/>
    <defs>
     <path id="maeaede0dcc" d="M 0 2 
C 0.530406 2 1.03916 1.789267 1.414214 1.414214 
C 1.789267 1.03916 2 0.530406 2 0 
C 2 -0.530406 1.789267 -1.03916 1.414214 -1.414214 
C 1.03916 -1.789267 0.530406 -2 0 -2 
C -0.530406 -2 -1.03916 -1.789267 -1.414214 -1.414214 
C -1.789267 -1.03916 -2 -0.530406 -2 0 
C -2 0.530406 -1.789267 1.03916 -1.414214 1.414214 
C -1.03916 1.789267 -0.530406 2 0 2 
z
" style="stroke: #f39c12; stroke-opacity: 0.85"/>
    </defs>
    <g clip-path="url(#pd0363772bc)">
     <use xlink:href="#maeaede0dcc" x="479.993462" y="304.441781" style="fill: #f39c12; fill-opacity: 0.85; stroke: #f39c12; stroke-opacity: 0.85"/>
     <use xlink:href="#maeaede0dcc" x="483.956587" y="195.988724" style="fill: #f39c12; fill-opacity: 0.85; stroke: #f39c12; stroke-opacity: 0.85"/>
     <use xlink:href="#maeaede0dcc" x="394.09982" y="135.252007" style="fill: #f39c12; fill-opacity: 0.85; stroke: #f39c12; stroke-opacity: 0.85"/>
     <use xlink:href="#maeaede0dcc" x="304.223985" y="82.839135" style="fill: #f39c12; fill-opacity: 0.85; stroke: #f39c12; stroke-opacity: 0.85"/>
     <use xlink:href="#maeaede0dcc" x="201.726203" y="105.126412" style="fill: #f39c12; fill-opacity: 0.85; stroke: #f39c12; stroke-opacity: 0.85"/>
     <use xlink:href="#maeaede0dcc" x="105.623256" y="152.334794" style="fill: #f39c12; fill-opacity: 0.85; stroke: #f39c12; stroke-opacity: 0.85"/>
     <use xlink:href="#maeaede0dcc" x="84.423557" y="256.897927" style="fill: #f39c12; fill-opacity: 0.85; stroke: #f39c12; stroke-opacity: 0.85"/>
     <use xlink:href="#maeaede0dcc" x="111.374427" y="345.342841" style="fill: #f39c12; fill-opacity: 0.85; stroke: #f39c12; stroke-opacity: 0.85"/>
     <use xlink:href="#maeaede0dcc" x="125.530665" y="438.912342" style="fill: #f39c12; fill-opacity: 0.85; stroke: #f39c12; stroke-opacity: 0.85"/>
     <use xlink:href="#maeaede0dcc" x="199.866726" y="508.660187" style="fill: #f39c12; fill-opacity: 0.85; stroke: #f39c12; stroke-opacity: 0.85"/>
     <use xlink:href="#maeaede0dcc" x="303.008401" y="516.033193" style="fill: #f39c12; fill-opacity: 0.85; stroke: #f39c12; stroke-opacity: 0.85"/>
     <use xlink:href="#maeaede0dcc" x="400.259698" y="482.555678" style="fill: #f39c12; fill-opacity: 0.85; stroke: #f39c12; stroke-opacity: 0.85"/>
     <use xlink:href="#maeaede0dcc" x="456.185188" y="398.319283" style="fill: #f39c12; fill-opacity: 0.85; stroke: #f39c12; stroke-opacity: 0.85"/>
     <use xlink:href="#maeaede0dcc" x="479.993462" y="304.441781" style="fill: #f39c12; fill-opacity: 0.85; stroke: #f39c12; stroke-opacity: 0.85"/>
    </g>
   </g>
   <g id="line2d_17">
    <path d="M 454.819635 304.441781 
L 462.171387 207.422479 
L 384.692208 148.881287 
L 300.522918 113.32016 
L 217.685209 147.206851 
L 136.566675 179.748271 
L 111.174223 263.491374 
L 118.662579 343.546473 
L 125.73786 438.728784 
L 209.647419 482.870619 
L 300.018097 491.405829 
L 384.749742 460.085626 
L 410.084666 374.123863 
L 454.819635 304.441781 
" clip-path="url(#pd0363772bc)" style="fill: none; stroke-dasharray: 6.66,2.88; stroke-dashoffset: 0; stroke: #2ecc71; stroke-opacity: 0.85; stroke-width: 1.8"/>
    <defs>
     <path id="m0694f5dddc" d="M 0 2 
C 0.530406 2 1.03916 1.789267 1.414214 1.414214 
C 1.789267 1.03916 2 0.530406 2 0 
C 2 -0.530406 1.789267 -1.03916 1.414214 -1.414214 
C 1.03916 -1.789267 0.530406 -2 0 -2 
C -0.530406 -2 -1.03916 -1.789267 -1.414214 -1.414214 
C -1.789267 -1.03916 -2 -0.530406 -2 0 
C -2 0.530406 -1.789267 1.03916 -1.414214 1.414214 
C -1.03916 1.789267 -0.530406 2 0 2 
z
" style="stroke: #2ecc71; stroke-opacity: 0.85"/>
    </defs>
    <g clip-path="url(#pd0363772bc)">
     <use xlink:href="#m0694f5dddc" x="454.819635" y="304.441781" style="fill: #2ecc71; fill-opacity: 0.85; stroke: #2ecc71; stroke-opacity: 0.85"/>
     <use xlink:href="#m0694f5dddc" x="462.171387" y="207.422479" style="fill: #2ecc71; fill-opacity: 0.85; stroke: #2ecc71; stroke-opacity: 0.85"/>
     <use xlink:href="#m0694f5dddc" x="384.692208" y="148.881287" style="fill: #2ecc71; fill-opacity: 0.85; stroke: #2ecc71; stroke-opacity: 0.85"/>
     <use xlink:href="#m0694f5dddc" x="300.522918" y="113.32016" style="fill: #2ecc71; fill-opacity: 0.85; stroke: #2ecc71; stroke-opacity: 0.85"/>
     <use xlink:href="#m0694f5dddc" x="217.685209" y="147.206851" style="fill: #2ecc71; fill-opacity: 0.85; stroke: #2ecc71; stroke-opacity: 0.85"/>
     <use xlink:href="#m0694f5dddc" x="136.566675" y="179.748271" style="fill: #2ecc71; fill-opacity: 0.85; stroke: #2ecc71; stroke-opacity: 0.85"/>
     <use xlink:href="#m0694f5dddc" x="111.174223" y="263.491374" style="fill: #2ecc71; fill-opacity: 0.85; stroke: #2ecc71; stroke-opacity: 0.85"/>
     <use xlink:href="#m0694f5dddc" x="118.662579" y="343.546473" style="fill: #2ecc71; fill-opacity: 0.85; stroke: #2ecc71; stroke-opacity: 0.85"/>
     <use xlink:href="#m0694f5dddc" x="125.73786" y="438.728784" style="fill: #2ecc71; fill-opacity: 0.85; stroke: #2ecc71; stroke-opacity: 0.85"/>
     <use xlink:href="#m0694f5dddc" x="209.647419" y="482.870619" style="fill: #2ecc71; fill-opacity: 0.85; stroke: #2ecc71; stroke-opacity: 0.85"/>
     <use xlink:href="#m0694f5dddc" x="300.018097" y="491.405829" style="fill: #2ecc71; fill-opacity: 0.85; stroke: #2ecc71; stroke-opacity: 0.85"/>
     <use xlink:href="#m0694f5dddc" x="384.749742" y="460.085626" style="fill: #2ecc71; fill-opacity: 0.85; stroke: #2ecc71; stroke-opacity: 0.85"/>
     <use xlink:href="#m0694f5dddc" x="410.084666" y="374.123863" style="fill: #2ecc71; fill-opacity: 0.85; stroke: #2ecc71; stroke-opacity: 0.85"/>
     <use xlink:href="#m0694f5dddc" x="454.819635" y="304.441781" style="fill: #2ecc71; fill-opacity: 0.85; stroke: #2ecc71; stroke-opacity: 0.85"/>
    </g>
   </g>
   <g id="line2d_18">
    <path d="M 481.870458 304.441781 
L 473.69131 201.376357 
L 395.968456 132.544821 
L 303.884437 85.635559 
L 196.538291 91.447012 
L 105.19645 151.956677 
L 97.133818 260.030725 
L 96.017248 349.128046 
L 125.012677 439.371239 
L 194.561944 522.647749 
L 304.341657 527.013547 
L 408.727778 494.823809 
L 466.182892 403.566483 
L 481.870458 304.441781 
" clip-path="url(#pd0363772bc)" style="fill: none; stroke-dasharray: 6.66,2.88; stroke-dashoffset: 0; stroke: #9b59b6; stroke-opacity: 0.85; stroke-width: 1.8"/>
    <defs>
     <path id="m9afef82ee4" d="M 0 2 
C 0.530406 2 1.03916 1.789267 1.414214 1.414214 
C 1.789267 1.03916 2 0.530406 2 0 
C 2 -0.530406 1.789267 -1.03916 1.414214 -1.414214 
C 1.03916 -1.789267 0.530406 -2 0 -2 
C -0.530406 -2 -1.03916 -1.789267 -1.414214 -1.414214 
C -1.789267 -1.03916 -2 -0.530406 -2 0 
C -2 0.530406 -1.789267 1.03916 -1.414214 1.414214 
C -1.03916 1.789267 -0.530406 2 0 2 
z
" style="stroke: #9b59b6; stroke-opacity: 0.85"/>
    </defs>
    <g clip-path="url(#pd0363772bc)">
     <use xlink:href="#m9afef82ee4" x="481.870458" y="304.441781" style="fill: #9b59b6; fill-opacity: 0.85; stroke: #9b59b6; stroke-opacity: 0.85"/>
     <use xlink:href="#m9afef82ee4" x="473.69131" y="201.376357" style="fill: #9b59b6; fill-opacity: 0.85; stroke: #9b59b6; stroke-opacity: 0.85"/>
     <use xlink:href="#m9afef82ee4" x="395.968456" y="132.544821" style="fill: #9b59b6; fill-opacity: 0.85; stroke: #9b59b6; stroke-opacity: 0.85"/>
     <use xlink:href="#m9afef82ee4" x="303.884437" y="85.635559" style="fill: #9b59b6; fill-opacity: 0.85; stroke: #9b59b6; stroke-opacity: 0.85"/>
     <use xlink:href="#m9afef82ee4" x="196.538291" y="91.447012" style="fill: #9b59b6; fill-opacity: 0.85; stroke: #9b59b6; stroke-opacity: 0.85"/>
     <use xlink:href="#m9afef82ee4" x="105.19645" y="151.956677" style="fill: #9b59b6; fill-opacity: 0.85; stroke: #9b59b6; stroke-opacity: 0.85"/>
     <use xlink:href="#m9afef82ee4" x="97.133818" y="260.030725" style="fill: #9b59b6; fill-opacity: 0.85; stroke: #9b59b6; stroke-opacity: 0.85"/>
     <use xlink:href="#m9afef82ee4" x="96.017248" y="349.128046" style="fill: #9b59b6; fill-opacity: 0.85; stroke: #9b59b6; stroke-opacity: 0.85"/>
     <use xlink:href="#m9afef82ee4" x="125.012677" y="439.371239" style="fill: #9b59b6; fill-opacity: 0.85; stroke: #9b59b6; stroke-opacity: 0.85"/>
     <use xlink:href="#m9afef82ee4" x="194.561944" y="522.647749" style="fill: #9b59b6; fill-opacity: 0.85; stroke: #9b59b6; stroke-opacity: 0.85"/>
     <use xlink:href="#m9afef82ee4" x="304.341657" y="527.013547" style="fill: #9b59b6; fill-opacity: 0.85; stroke: #9b59b6; stroke-opacity: 0.85"/>
     <use xlink:href="#m9afef82ee4" x="408.727778" y="494.823809" style="fill: #9b59b6; fill-opacity: 0.85; stroke: #9b59b6; stroke-opacity: 0.85"/>
     <use xlink:href="#m9afef82ee4" x="466.182892" y="403.566483" style="fill: #9b59b6; fill-opacity: 0.85; stroke: #9b59b6; stroke-opacity: 0.85"/>
     <use xlink:href="#m9afef82ee4" x="481.870458" y="304.441781" style="fill: #9b59b6; fill-opacity: 0.85; stroke: #9b59b6; stroke-opacity: 0.85"/>
    </g>
   </g>
   <g id="patch_4">
    <path d="M 509.142104 304.441781 
L 478.595831 198.802265 
L 409.886568 112.380955 
L 305.446355 72.772007 
L 195.204257 87.929452 
L 102.635616 149.687975 
L 51.31776 248.738081 
L 50.726585 360.291191 
L 102.635616 459.195586 
L 195.335558 520.607896 
L 304.894006 531.56255 
L 406.945024 492.241044 
L 483.956587 412.894837 
z
" clip-path="url(#pd0363772bc)" style="fill: #4a90d9; opacity: 0.2; stroke: #4a90d9; stroke-linejoin: miter"/>
   </g>
   <g id="legend_1">
    <g id="patch_5">
     <path d="M 495.014658 98.26875 
L 684.680283 98.26875 
Q 686.680283 98.26875 686.680283 96.26875 
L 686.680283 9.2 
Q 686.680283 7.2 684.680283 7.2 
L 495.014658 7.2 
Q 493.014658 7.2 493.014658 9.2 
L 493.014658 96.26875 
Q 493.014658 98.26875 495.014658 98.26875 
z
" style="fill: #ffffff; opacity: 0.8; stroke: #cccccc; stroke-linejoin: miter"/>
    </g>
    <g id="line2d_19">
     <path d="M 497.014658 15.298438 
L 507.014658 15.298438 
L 517.014658 15.298438 
" style="fill: none; stroke-dasharray: 6.66,2.88; stroke-dashoffset: 0; stroke: #7fb3e6; stroke-opacity: 0.85; stroke-width: 1.8"/>
     <g>
      <use xlink:href="#m9ccc1bef80" x="507.014658" y="15.298438" style="fill: #7fb3e6; fill-opacity: 0.85; stroke: #7fb3e6; stroke-opacity: 0.85"/>
     </g>
    </g>
    <g id="text_14">
     <!-- MOSS-Audio-4B-Instruct -->
     <g transform="translate(525.014658 18.798438) scale(0.1 -0.1)">
      <defs>
       <path id="DejaVuSans-4d" d="M 628 4666 
L 1569 4666 
L 2759 1491 
L 3956 4666 
L 4897 4666 
L 4897 0 
L 4281 0 
L 4281 4097 
L 3078 897 
L 2444 897 
L 1241 4097 
L 1241 0 
L 628 0 
L 628 4666 
z
" transform="scale(0.015625)"/>
       <path id="DejaVuSans-4f" d="M 2522 4238 
Q 1834 4238 1429 3725 
Q 1025 3213 1025 2328 
Q 1025 1447 1429 934 
Q 1834 422 2522 422 
Q 3209 422 3611 934 
Q 4013 1447 4013 2328 
Q 4013 3213 3611 3725 
Q 3209 4238 2522 4238 
z
M 2522 4750 
Q 3503 4750 4090 4092 
Q 4678 3434 4678 2328 
Q 4678 1225 4090 567 
Q 3503 -91 2522 -91 
Q 1538 -91 948 565 
Q 359 1222 359 2328 
Q 359 3434 948 4092 
Q 1538 4750 2522 4750 
z
" transform="scale(0.015625)"/>
       <path id="DejaVuSans-53" d="M 3425 4513 
L 3425 3897 
Q 3066 4069 2747 4153 
Q 2428 4238 2131 4238 
Q 1616 4238 1336 4038 
Q 1056 3838 1056 3469 
Q 1056 3159 1242 3001 
Q 1428 2844 1947 2747 
L 2328 2669 
Q 3034 2534 3370 2195 
Q 3706 1856 3706 1288 
Q 3706 609 3251 259 
Q 2797 -91 1919 -91 
Q 1588 -91 1214 -16 
Q 841 59 441 206 
L 441 856 
Q 825 641 1194 531 
Q 1563 422 1919 422 
Q 2459 422 2753 634 
Q 3047 847 3047 1241 
Q 3047 1584 2836 1778 
Q 2625 1972 2144 2069 
L 1759 2144 
Q 1053 2284 737 2584 
Q 422 2884 422 3419 
Q 422 4038 858 4394 
Q 1294 4750 2059 4750 
Q 2388 4750 2728 4690 
Q 3069 4631 3425 4513 
z
" transform="scale(0.015625)"/>
       <path id="DejaVuSans-2d" d="M 313 2009 
L 1997 2009 
L 1997 1497 
L 313 1497 
L 313 2009 
z
" transform="scale(0.015625)"/>
       <path id="DejaVuSans-41" d="M 2188 4044 
L 1331 1722 
L 3047 1722 
L 2188 4044 
z
M 1831 4666 
L 2547 4666 
L 4325 0 
L 3669 0 
L 3244 1197 
L 1141 1197 
L 716 0 
L 50 0 
L 1831 4666 
z
" transform="scale(0.015625)"/>
       <path id="DejaVuSans-34" d="M 2419 4116 
L 825 1625 
L 2419 1625 
L 2419 4116 
z
M 2253 4666 
L 3047 4666 
L 3047 1625 
L 3713 1625 
L 3713 1100 
L 3047 1100 
L 3047 0 
L 2419 0 
L 2419 1100 
L 313 1100 
L 313 1709 
L 2253 4666 
z
" transform="scale(0.015625)"/>
       <path id="DejaVuSans-42" d="M 1259 2228 
L 1259 519 
L 2272 519 
Q 2781 519 3026 730 
Q 3272 941 3272 1375 
Q 3272 1813 3026 2020 
Q 2781 2228 2272 2228 
L 1259 2228 
z
M 1259 4147 
L 1259 2741 
L 2194 2741 
Q 2656 2741 2882 2914 
Q 3109 3088 3109 3444 
Q 3109 3797 2882 3972 
Q 2656 4147 2194 4147 
L 1259 4147 
z
M 628 4666 
L 2241 4666 
Q 2963 4666 3353 4366 
Q 3744 4066 3744 3513 
Q 3744 3084 3544 2831 
Q 3344 2578 2956 2516 
Q 3422 2416 3680 2098 
Q 3938 1781 3938 1306 
Q 3938 681 3513 340 
Q 3088 0 2303 0 
L 628 0 
L 628 4666 
z
" transform="scale(0.015625)"/>
       <path id="DejaVuSans-49" d="M 628 4666 
L 1259 4666 
L 1259 0 
L 628 0 
L 628 4666 
z
" transform="scale(0.015625)"/>
      </defs>
      <use xlink:href="#DejaVuSans-4d"/>
      <use xlink:href="#DejaVuSans-4f" transform="translate(86.279297 0)"/>
      <use xlink:href="#DejaVuSans-53" transform="translate(164.990234 0)"/>
      <use xlink:href="#DejaVuSans-53" transform="translate(228.466797 0)"/>
      <use xlink:href="#DejaVuSans-2d" transform="translate(291.943359 0)"/>
      <use xlink:href="#DejaVuSans-41" transform="translate(325.777344 0)"/>
      <use xlink:href="#DejaVuSans-75" transform="translate(394.185547 0)"/>
      <use xlink:href="#DejaVuSans-64" transform="translate(457.564453 0)"/>
      <use xlink:href="#DejaVuSans-69" transform="translate(521.041016 0)"/>
      <use xlink:href="#DejaVuSans-6f" transform="translate(548.824219 0)"/>
      <use xlink:href="#DejaVuSans-2d" transform="translate(611.880859 0)"/>
      <use xlink:href="#DejaVuSans-34" transform="translate(647.964844 0)"/>
      <use xlink:href="#DejaVuSans-42" transform="translate(711.587891 0)"/>
      <use xlink:href="#DejaVuSans-2d" transform="translate(780.191406 0)"/>
      <use xlink:href="#DejaVuSans-49" transform="translate(816.275391 0)"/>
      <use xlink:href="#DejaVuSans-6e" transform="translate(845.767578 0)"/>
      <use xlink:href="#DejaVuSans-73" transform="translate(909.146484 0)"/>
      <use xlink:href="#DejaVuSans-74" transform="translate(961.246094 0)"/>
      <use xlink:href="#DejaVuSans-72" transform="translate(1000.455078 0)"/>
      <use xlink:href="#DejaVuSans-75" transform="translate(1041.568359 0)"/>
      <use xlink:href="#DejaVuSans-63" transform="translate(1104.947266 0)"/>
      <use xlink:href="#DejaVuSans-74" transform="translate(1159.927734 0)"/>
     </g>
    </g>
    <g id="line2d_20">
     <path d="M 497.014658 29.976563 
L 507.014658 29.976563 
L 517.014658 29.976563 
" style="fill: none; stroke: #4a90d9; stroke-width: 2.5; stroke-linecap: square"/>
     <defs>
      <path id="mb10a973101" d="M 0 2.5 
C 0.663008 2.5 1.29895 2.236584 1.767767 1.767767 
C 2.236584 1.29895 2.5 0.663008 2.5 0 
C 2.5 -0.663008 2.236584 -1.29895 1.767767 -1.767767 
C 1.29895 -2.236584 0.663008 -2.5 0 -2.5 
C -0.663008 -2.5 -1.29895 -2.236584 -1.767767 -1.767767 
C -2.236584 -1.29895 -2.5 -0.663008 -2.5 0 
C -2.5 0.663008 -2.236584 1.29895 -1.767767 1.767767 
C -1.29895 2.236584 -0.663008 2.5 0 2.5 
z
" style="stroke: #4a90d9"/>
     </defs>
     <g>
      <use xlink:href="#mb10a973101" x="507.014658" y="29.976563" style="fill: #4a90d9; stroke: #4a90d9"/>
     </g>
    </g>
    <g id="text_15">
     <!-- MOSS-Audio-8B-Instruct -->
     <g transform="translate(525.014658 33.476563) scale(0.1 -0.1)">
      <defs>
       <path id="DejaVuSans-38" d="M 2034 2216 
Q 1584 2216 1326 1975 
Q 1069 1734 1069 1313 
Q 1069 891 1326 650 
Q 1584 409 2034 409 
Q 2484 409 2743 651 
Q 3003 894 3003 1313 
Q 3003 1734 2745 1975 
Q 2488 2216 2034 2216 
z
M 1403 2484 
Q 997 2584 770 2862 
Q 544 3141 544 3541 
Q 544 4100 942 4425 
Q 1341 4750 2034 4750 
Q 2731 4750 3128 4425 
Q 3525 4100 3525 3541 
Q 3525 3141 3298 2862 
Q 3072 2584 2669 2484 
Q 3125 2378 3379 2068 
Q 3634 1759 3634 1313 
Q 3634 634 3220 271 
Q 2806 -91 2034 -91 
Q 1263 -91 848 271 
Q 434 634 434 1313 
Q 434 1759 690 2068 
Q 947 2378 1403 2484 
z
M 1172 3481 
Q 1172 3119 1398 2916 
Q 1625 2713 2034 2713 
Q 2441 2713 2670 2916 
Q 2900 3119 2900 3481 
Q 2900 3844 2670 4047 
Q 2441 4250 2034 4250 
Q 1625 4250 1398 4047 
Q 1172 3844 1172 3481 
z
" transform="scale(0.015625)"/>
      </defs>
      <use xlink:href="#DejaVuSans-4d"/>
      <use xlink:href="#DejaVuSans-4f" transform="translate(86.279297 0)"/>
      <use xlink:href="#DejaVuSans-53" transform="translate(164.990234 0)"/>
      <use xlink:href="#DejaVuSans-53" transform="translate(228.466797 0)"/>
      <use xlink:href="#DejaVuSans-2d" transform="translate(291.943359 0)"/>
      <use xlink:href="#DejaVuSans-41" transform="translate(325.777344 0)"/>
      <use xlink:href="#DejaVuSans-75" transform="translate(394.185547 0)"/>
      <use xlink:href="#DejaVuSans-64" transform="translate(457.564453 0)"/>
      <use xlink:href="#DejaVuSans-69" transform="translate(521.041016 0)"/>
      <use xlink:href="#DejaVuSans-6f" transform="translate(548.824219 0)"/>
      <use xlink:href="#DejaVuSans-2d" transform="translate(611.880859 0)"/>
      <use xlink:href="#DejaVuSans-38" transform="translate(647.964844 0)"/>
      <use xlink:href="#DejaVuSans-42" transform="translate(711.587891 0)"/>
      <use xlink:href="#DejaVuSans-2d" transform="translate(780.191406 0)"/>
      <use xlink:href="#DejaVuSans-49" transform="translate(816.275391 0)"/>
      <use xlink:href="#DejaVuSans-6e" transform="translate(845.767578 0)"/>
      <use xlink:href="#DejaVuSans-73" transform="translate(909.146484 0)"/>
      <use xlink:href="#DejaVuSans-74" transform="translate(961.246094 0)"/>
      <use xlink:href="#DejaVuSans-72" transform="translate(1000.455078 0)"/>
      <use xlink:href="#DejaVuSans-75" transform="translate(1041.568359 0)"/>
      <use xlink:href="#DejaVuSans-63" transform="translate(1104.947266 0)"/>
      <use xlink:href="#DejaVuSans-74" transform="translate(1159.927734 0)"/>
     </g>
    </g>
    <g id="line2d_21">
     <path d="M 497.014658 44.654688 
L 507.014658 44.654688 
L 517.014658 44.654688 
" style="fill: none; stroke-dasharray: 6.66,2.88; stroke-dashoffset: 0; stroke: #e74c3c; stroke-opacity: 0.85; stroke-width: 1.8"/>
     <g>
      <use xlink:href="#ma5e279d977" x="507.014658" y="44.654688" style="fill: #e74c3c; fill-opacity: 0.85; stroke: #e74c3c; stroke-opacity: 0.85"/>
     </g>
    </g>
    <g id="text_16">
     <!-- Qwen3-Omni-30B-A3B-Instruct -->
     <g transform="translate(525.014658 48.154688) scale(0.1 -0.1)">
      <defs>
       <path id="DejaVuSans-51" d="M 2522 4238 
Q 1834 4238 1429 3725 
Q 1025 3213 1025 2328 
Q 1025 1447 1429 934 
Q 1834 422 2522 422 
Q 3209 422 3611 934 
Q 4013 1447 4013 2328 
Q 4013 3213 3611 3725 
Q 3209 4238 2522 4238 
z
M 3406 84 
L 4238 -825 
L 3475 -825 
L 2784 -78 
Q 2681 -84 2626 -87 
Q 2572 -91 2522 -91 
Q 1538 -91 948 567 
Q 359 1225 359 2328 
Q 359 3434 948 4092 
Q 1538 4750 2522 4750 
Q 3503 4750 4090 4092 
Q 4678 3434 4678 2328 
Q 4678 1516 4351 937 
Q 4025 359 3406 84 
z
" transform="scale(0.015625)"/>
       <path id="DejaVuSans-77" d="M 269 3500 
L 844 3500 
L 1563 769 
L 2278 3500 
L 2956 3500 
L 3675 769 
L 4391 3500 
L 4966 3500 
L 4050 0 
L 3372 0 
L 2619 2869 
L 1863 0 
L 1184 0 
L 269 3500 
z
" transform="scale(0.015625)"/>
       <path id="DejaVuSans-33" d="M 2597 2516 
Q 3050 2419 3304 2112 
Q 3559 1806 3559 1356 
Q 3559 666 3084 287 
Q 2609 -91 1734 -91 
Q 1441 -91 1130 -33 
Q 819 25 488 141 
L 488 750 
Q 750 597 1062 519 
Q 1375 441 1716 441 
Q 2309 441 2620 675 
Q 2931 909 2931 1356 
Q 2931 1769 2642 2001 
Q 2353 2234 1838 2234 
L 1294 2234 
L 1294 2753 
L 1863 2753 
Q 2328 2753 2575 2939 
Q 2822 3125 2822 3475 
Q 2822 3834 2567 4026 
Q 2313 4219 1838 4219 
Q 1578 4219 1281 4162 
Q 984 4106 628 3988 
L 628 4550 
Q 988 4650 1302 4700 
Q 1616 4750 1894 4750 
Q 2613 4750 3031 4423 
Q 3450 4097 3450 3541 
Q 3450 3153 3228 2886 
Q 3006 2619 2597 2516 
z
" transform="scale(0.015625)"/>
       <path id="DejaVuSans-30" d="M 2034 4250 
Q 1547 4250 1301 3770 
Q 1056 3291 1056 2328 
Q 1056 1369 1301 889 
Q 1547 409 2034 409 
Q 2525 409 2770 889 
Q 3016 1369 3016 2328 
Q 3016 3291 2770 3770 
Q 2525 4250 2034 4250 
z
M 2034 4750 
Q 2819 4750 3233 4129 
Q 3647 3509 3647 2328 
Q 3647 1150 3233 529 
Q 2819 -91 2034 -91 
Q 1250 -91 836 529 
Q 422 1150 422 2328 
Q 422 3509 836 4129 
Q 1250 4750 2034 4750 
z
" transform="scale(0.015625)"/>
      </defs>
      <use xlink:href="#DejaVuSans-51"/>
      <use xlink:href="#DejaVuSans-77" transform="translate(78.710938 0)"/>
      <use xlink:href="#DejaVuSans-65" transform="translate(160.498047 0)"/>
      <use xlink:href="#DejaVuSans-6e" transform="translate(222.021484 0)"/>
      <use xlink:href="#DejaVuSans-33" transform="translate(285.400391 0)"/>
      <use xlink:href="#DejaVuSans-2d" transform="translate(349.023438 0)"/>
      <use xlink:href="#DejaVuSans-4f" transform="translate(387.857422 0)"/>
      <use xlink:href="#DejaVuSans-6d" transform="translate(466.568359 0)"/>
      <use xlink:href="#DejaVuSans-6e" transform="translate(563.980469 0)"/>
      <use xlink:href="#DejaVuSans-69" transform="translate(627.359375 0)"/>
      <use xlink:href="#DejaVuSans-2d" transform="translate(655.142578 0)"/>
      <use xlink:href="#DejaVuSans-33" transform="translate(691.226562 0)"/>
      <use xlink:href="#DejaVuSans-30" transform="translate(754.849609 0)"/>
      <use xlink:href="#DejaVuSans-42" transform="translate(818.472656 0)"/>
      <use xlink:href="#DejaVuSans-2d" transform="translate(887.076172 0)"/>
      <use xlink:href="#DejaVuSans-41" transform="translate(920.910156 0)"/>
      <use xlink:href="#DejaVuSans-33" transform="translate(989.318359 0)"/>
      <use xlink:href="#DejaVuSans-42" transform="translate(1052.941406 0)"/>
      <use xlink:href="#DejaVuSans-2d" transform="translate(1121.544922 0)"/>
      <use xlink:href="#DejaVuSans-49" transform="translate(1157.628906 0)"/>
      <use xlink:href="#DejaVuSans-6e" transform="translate(1187.121094 0)"/>
      <use xlink:href="#DejaVuSans-73" transform="translate(1250.5 0)"/>
      <use xlink:href="#DejaVuSans-74" transform="translate(1302.599609 0)"/>
      <use xlink:href="#DejaVuSans-72" transform="translate(1341.808594 0)"/>
      <use xlink:href="#DejaVuSans-75" transform="translate(1382.921875 0)"/>
      <use xlink:href="#DejaVuSans-63" transform="translate(1446.300781 0)"/>
      <use xlink:href="#DejaVuSans-74" transform="translate(1501.28125 0)"/>
     </g>
    </g>
    <g id="line2d_22">
     <path d="M 497.014658 59.332813 
L 507.014658 59.332813 
L 517.014658 59.332813 
" style="fill: none; stroke-dasharray: 6.66,2.88; stroke-dashoffset: 0; stroke: #f39c12; stroke-opacity: 0.85; stroke-width: 1.8"/>
     <g>
      <use xlink:href="#maeaede0dcc" x="507.014658" y="59.332813" style="fill: #f39c12; fill-opacity: 0.85; stroke: #f39c12; stroke-opacity: 0.85"/>
     </g>
    </g>
    <g id="text_17">
     <!-- Qwen3-Omni-30B-A3B-Thinking -->
     <g transform="translate(525.014658 62.832813) scale(0.1 -0.1)">
      <defs>
       <path id="DejaVuSans-54" d="M -19 4666 
L 3928 4666 
L 3928 4134 
L 2272 4134 
L 2272 0 
L 1638 0 
L 1638 4134 
L -19 4134 
L -19 4666 
z
" transform="scale(0.015625)"/>
       <path id="DejaVuSans-6b" d="M 581 4863 
L 1159 4863 
L 1159 1991 
L 2875 3500 
L 3609 3500 
L 1753 1863 
L 3688 0 
L 2938 0 
L 1159 1709 
L 1159 0 
L 581 0 
L 581 4863 
z
" transform="scale(0.015625)"/>
      </defs>
      <use xlink:href="#DejaVuSans-51"/>
      <use xlink:href="#DejaVuSans-77" transform="translate(78.710938 0)"/>
      <use xlink:href="#DejaVuSans-65" transform="translate(160.498047 0)"/>
      <use xlink:href="#DejaVuSans-6e" transform="translate(222.021484 0)"/>
      <use xlink:href="#DejaVuSans-33" transform="translate(285.400391 0)"/>
      <use xlink:href="#DejaVuSans-2d" transform="translate(349.023438 0)"/>
      <use xlink:href="#DejaVuSans-4f" transform="translate(387.857422 0)"/>
      <use xlink:href="#DejaVuSans-6d" transform="translate(466.568359 0)"/>
      <use xlink:href="#DejaVuSans-6e" transform="translate(563.980469 0)"/>
      <use xlink:href="#DejaVuSans-69" transform="translate(627.359375 0)"/>
      <use xlink:href="#DejaVuSans-2d" transform="translate(655.142578 0)"/>
      <use xlink:href="#DejaVuSans-33" transform="translate(691.226562 0)"/>
      <use xlink:href="#DejaVuSans-30" transform="translate(754.849609 0)"/>
      <use xlink:href="#DejaVuSans-42" transform="translate(818.472656 0)"/>
      <use xlink:href="#DejaVuSans-2d" transform="translate(887.076172 0)"/>
      <use xlink:href="#DejaVuSans-41" transform="translate(920.910156 0)"/>
      <use xlink:href="#DejaVuSans-33" transform="translate(989.318359 0)"/>
      <use xlink:href="#DejaVuSans-42" transform="translate(1052.941406 0)"/>
      <use xlink:href="#DejaVuSans-2d" transform="translate(1121.544922 0)"/>
      <use xlink:href="#DejaVuSans-54" transform="translate(1148.503906 0)"/>
      <use xlink:href="#DejaVuSans-68" transform="translate(1209.587891 0)"/>
      <use xlink:href="#DejaVuSans-69" transform="translate(1272.966797 0)"/>
      <use xlink:href="#DejaVuSans-6e" transform="translate(1300.75 0)"/>
      <use xlink:href="#DejaVuSans-6b" transform="translate(1364.128906 0)"/>
      <use xlink:href="#DejaVuSans-69" transform="translate(1422.039062 0)"/>
      <use xlink:href="#DejaVuSans-6e" transform="translate(1449.822266 0)"/>
      <use xlink:href="#DejaVuSans-67" transform="translate(1513.201172 0)"/>
     </g>
    </g>
    <g id="line2d_23">
     <path d="M 497.014658 74.010938 
L 507.014658 74.010938 
L 517.014658 74.010938 
" style="fill: none; stroke-dasharray: 6.66,2.88; stroke-dashoffset: 0; stroke: #2ecc71; stroke-opacity: 0.85; stroke-width: 1.8"/>
     <g>
      <use xlink:href="#m0694f5dddc" x="507.014658" y="74.010938" style="fill: #2ecc71; fill-opacity: 0.85; stroke: #2ecc71; stroke-opacity: 0.85"/>
     </g>
    </g>
    <g id="text_18">
     <!-- Gemini-3-Pro -->
     <g transform="translate(525.014658 77.510938) scale(0.1 -0.1)">
      <defs>
       <path id="DejaVuSans-47" d="M 3809 666 
L 3809 1919 
L 2778 1919 
L 2778 2438 
L 4434 2438 
L 4434 434 
Q 4069 175 3628 42 
Q 3188 -91 2688 -91 
Q 1594 -91 976 548 
Q 359 1188 359 2328 
Q 359 3472 976 4111 
Q 1594 4750 2688 4750 
Q 3144 4750 3555 4637 
Q 3966 4525 4313 4306 
L 4313 3634 
Q 3963 3931 3569 4081 
Q 3175 4231 2741 4231 
Q 1884 4231 1454 3753 
Q 1025 3275 1025 2328 
Q 1025 1384 1454 906 
Q 1884 428 2741 428 
Q 3075 428 3337 486 
Q 3600 544 3809 666 
z
" transform="scale(0.015625)"/>
       <path id="DejaVuSans-50" d="M 1259 4147 
L 1259 2394 
L 2053 2394 
Q 2494 2394 2734 2622 
Q 2975 2850 2975 3272 
Q 2975 3691 2734 3919 
Q 2494 4147 2053 4147 
L 1259 4147 
z
M 628 4666 
L 2053 4666 
Q 2838 4666 3239 4311 
Q 3641 3956 3641 3272 
Q 3641 2581 3239 2228 
Q 2838 1875 2053 1875 
L 1259 1875 
L 1259 0 
L 628 0 
L 628 4666 
z
" transform="scale(0.015625)"/>
      </defs>
      <use xlink:href="#DejaVuSans-47"/>
      <use xlink:href="#DejaVuSans-65" transform="translate(77.490234 0)"/>
      <use xlink:href="#DejaVuSans-6d" transform="translate(139.013672 0)"/>
      <use xlink:href="#DejaVuSans-69" transform="translate(236.425781 0)"/>
      <use xlink:href="#DejaVuSans-6e" transform="translate(264.208984 0)"/>
      <use xlink:href="#DejaVuSans-69" transform="translate(327.587891 0)"/>
      <use xlink:href="#DejaVuSans-2d" transform="translate(355.371094 0)"/>
      <use xlink:href="#DejaVuSans-33" transform="translate(391.455078 0)"/>
      <use xlink:href="#DejaVuSans-2d" transform="translate(455.078125 0)"/>
      <use xlink:href="#DejaVuSans-50" transform="translate(491.162109 0)"/>
      <use xlink:href="#DejaVuSans-72" transform="translate(549.714844 0)"/>
      <use xlink:href="#DejaVuSans-6f" transform="translate(588.578125 0)"/>
     </g>
    </g>
    <g id="line2d_24">
     <path d="M 497.014658 88.689063 
L 507.014658 88.689063 
L 517.014658 88.689063 
" style="fill: none; stroke-dasharray: 6.66,2.88; stroke-dashoffset: 0; stroke: #9b59b6; stroke-opacity: 0.85; stroke-width: 1.8"/>
     <g>
      <use xlink:href="#m9afef82ee4" x="507.014658" y="88.689063" style="fill: #9b59b6; fill-opacity: 0.85; stroke: #9b59b6; stroke-opacity: 0.85"/>
     </g>
    </g>
    <g id="text_19">
     <!-- Gemini-3.1-Pro -->
     <g transform="translate(525.014658 92.189063) scale(0.1 -0.1)">
      <defs>
       <path id="DejaVuSans-2e" d="M 684 794 
L 1344 794 
L 1344 0 
L 684 0 
L 684 794 
z
" transform="scale(0.015625)"/>
       <path id="DejaVuSans-31" d="M 794 531 
L 1825 531 
L 1825 4091 
L 703 3866 
L 703 4441 
L 1819 4666 
L 2450 4666 
L 2450 531 
L 3481 531 
L 3481 0 
L 794 0 
L 794 531 
z
" transform="scale(0.015625)"/>
      </defs>
      <use xlink:href="#DejaVuSans-47"/>
      <use xlink:href="#DejaVuSans-65" transform="translate(77.490234 0)"/>
      <use xlink:href="#DejaVuSans-6d" transform="translate(139.013672 0)"/>
      <use xlink:href="#DejaVuSans-69" transform="translate(236.425781 0)"/>
      <use xlink:href="#DejaVuSans-6e" transform="translate(264.208984 0)"/>
      <use xlink:href="#DejaVuSans-69" transform="translate(327.587891 0)"/>
      <use xlink:href="#DejaVuSans-2d" transform="translate(355.371094 0)"/>
      <use xlink:href="#DejaVuSans-33" transform="translate(391.455078 0)"/>
      <use xlink:href="#DejaVuSans-2e" transform="translate(455.078125 0)"/>
      <use xlink:href="#DejaVuSans-31" transform="translate(486.865234 0)"/>
      <use xlink:href="#DejaVuSans-2d" transform="translate(550.488281 0)"/>
      <use xlink:href="#DejaVuSans-50" transform="translate(586.572266 0)"/>
      <use xlink:href="#DejaVuSans-72" transform="translate(645.125 0)"/>
      <use xlink:href="#DejaVuSans-6f" transform="translate(683.988281 0)"/>
     </g>
    </g>
   </g>
   <g id="line2d_25">
    <path d="M 509.142104 304.441781 
L 478.595831 198.802265 
L 409.886568 112.380955 
L 305.446355 72.772007 
L 195.204257 87.929452 
L 102.635616 149.687975 
L 51.31776 248.738081 
L 50.726585 360.291191 
L 102.635616 459.195586 
L 195.335558 520.607896 
L 304.894006 531.56255 
L 406.945024 492.241044 
L 483.956587 412.894837 
L 509.142104 304.441781 
" clip-path="url(#pd0363772bc)" style="fill: none; stroke: #4a90d9; stroke-width: 2.5; stroke-linecap: square"/>
    <g clip-path="url(#pd0363772bc)">
     <use xlink:href="#mb10a973101" x="509.142104" y="304.441781" style="fill: #4a90d9; stroke: #4a90d9"/>
     <use xlink:href="#mb10a973101" x="478.595831" y="198.802265" style="fill: #4a90d9; stroke: #4a90d9"/>
     <use xlink:href="#mb10a973101" x="409.886568" y="112.380955" style="fill: #4a90d9; stroke: #4a90d9"/>
     <use xlink:href="#mb10a973101" x="305.446355" y="72.772007" style="fill: #4a90d9; stroke: #4a90d9"/>
     <use xlink:href="#mb10a973101" x="195.204257" y="87.929452" style="fill: #4a90d9; stroke: #4a90d9"/>
     <use xlink:href="#mb10a973101" x="102.635616" y="149.687975" style="fill: #4a90d9; stroke: #4a90d9"/>
     <use xlink:href="#mb10a973101" x="51.31776" y="248.738081" style="fill: #4a90d9; stroke: #4a90d9"/>
     <use xlink:href="#mb10a973101" x="50.726585" y="360.291191" style="fill: #4a90d9; stroke: #4a90d9"/>
     <use xlink:href="#mb10a973101" x="102.635616" y="459.195586" style="fill: #4a90d9; stroke: #4a90d9"/>
     <use xlink:href="#mb10a973101" x="195.335558" y="520.607896" style="fill: #4a90d9; stroke: #4a90d9"/>
     <use xlink:href="#mb10a973101" x="304.894006" y="531.56255" style="fill: #4a90d9; stroke: #4a90d9"/>
     <use xlink:href="#mb10a973101" x="406.945024" y="492.241044" style="fill: #4a90d9; stroke: #4a90d9"/>
     <use xlink:href="#mb10a973101" x="483.956587" y="412.894837" style="fill: #4a90d9; stroke: #4a90d9"/>
     <use xlink:href="#mb10a973101" x="509.142104" y="304.441781" style="fill: #4a90d9; stroke: #4a90d9"/>
    </g>
   </g>
  </g>
 </g>
 <defs>
  <clipPath id="pd0363772bc">
   <path d="M 521.059923 304.441781 
C 521.059923 272.433694 514.755028 240.736846 502.506064 211.165231 
C 490.2571 181.593615 472.302277 154.722325 449.669143 132.08919 
C 427.036008 109.456055 400.164718 91.501233 370.593102 79.252269 
C 341.021486 67.003304 309.324638 60.698409 277.316552 60.698409 
C 245.308466 60.698409 213.611618 67.003304 184.040002 79.252269 
C 154.468386 91.501233 127.597096 109.456055 104.963961 132.08919 
C 82.330826 154.722325 64.376004 181.593615 52.12704 211.165231 
C 39.878075 240.736846 33.57318 272.433694 33.57318 304.441781 
C 33.57318 336.449867 39.878075 368.146715 52.12704 397.71833 
C 64.376004 427.289946 82.330826 454.161236 104.963961 476.794371 
C 127.597096 499.427506 154.468386 517.382328 184.040002 529.631293 
C 213.611618 541.880257 245.308466 548.185152 277.316552 548.185152 
C 309.324638 548.185152 341.021486 541.880257 370.593102 529.631293 
C 400.164718 517.382328 427.036008 499.427506 449.669143 476.794371 
C 472.302277 454.161236 490.2571 427.289946 502.506064 397.71833 
C 514.755028 368.146715 521.059923 336.449867 521.059923 304.441781 
M 277.316552 304.441781 
C 277.316552 304.441781 277.316552 304.441781 277.316552 304.441781 
C 277.316552 304.441781 277.316552 304.441781 277.316552 304.441781 
C 277.316552 304.441781 277.316552 304.441781 277.316552 304.441781 
C 277.316552 304.441781 277.316552 304.441781 277.316552 304.441781 
C 277.316552 304.441781 277.316552 304.441781 277.316552 304.441781 
C 277.316552 304.441781 277.316552 304.441781 277.316552 304.441781 
C 277.316552 304.441781 277.316552 304.441781 277.316552 304.441781 
C 277.316552 304.441781 277.316552 304.441781 277.316552 304.441781 
C 277.316552 304.441781 277.316552 304.441781 277.316552 304.441781 
C 277.316552 304.441781 277.316552 304.441781 277.316552 304.441781 
C 277.316552 304.441781 277.316552 304.441781 277.316552 304.441781 
C 277.316552 304.441781 277.316552 304.441781 277.316552 304.441781 
C 277.316552 304.441781 277.316552 304.441781 277.316552 304.441781 
C 277.316552 304.441781 277.316552 304.441781 277.316552 304.441781 
C 277.316552 304.441781 277.316552 304.441781 277.316552 304.441781 
C 277.316552 304.441781 277.316552 304.441781 277.316552 304.441781 
z
"/>
  </clipPath>
 </defs>
</svg>
